<?xml version="1.0" standalone="no"?>
<!DOCTYPE svg PUBLIC "-//W3C//DTD SVG 20010904//EN"
 "http://www.w3.org/TR/2001/REC-SVG-20010904/DTD/svg10.dtd">
<svg version="1.0" xmlns="http://www.w3.org/2000/svg"
 width="300.000000pt" height="300.000000pt" viewBox="0 0 300.000000 300.000000"
 preserveAspectRatio="xMidYMid meet">
<metadata>
Created by potrace 1.11, written by Peter Selinger 2001-2013
</metadata>
<g transform="translate(0.000000,300.000000) scale(0.100000,-0.100000)"
fill="#000000" stroke="none">
<path d="M0 1500 l0 -1500 1500 0 1500 0 0 1500 0 1500 -1500 0 -1500 0 0
-1500z m1920 895 c82 -16 253 -67 277 -83 9 -5 1 -32 -28 -97 -22 -49 -41 -91
-43 -92 -2 -2 -50 12 -107 31 -155 52 -269 69 -419 63 -216 -9 -344 -60 -472
-187 -64 -63 -85 -94 -122 -171 -25 -52 -53 -130 -62 -174 -23 -109 -23 -351
1 -460 78 -367 337 -542 770 -521 72 4 168 14 215 24 l85 17 3 283 2 282 -210
0 -210 0 0 100 0 100 320 0 320 0 0 -454 0 -454 -77 -21 c-216 -58 -369 -75
-602 -68 -136 4 -194 10 -256 26 -231 62 -404 201 -509 408 -106 211 -136 549
-71 805 94 370 363 603 760 657 96 13 332 6 435 -14z"/>
</g>
</svg>
