<?xml version="1.0" encoding="utf-8"?>
<!-- Generator: Adobe Illustrator 16.0.0, SVG Export Plug-In . SVG Version: 6.00 Build 0)  -->
<!DOCTYPE svg PUBLIC "-//W3C//DTD SVG 1.1//EN" "http://www.w3.org/Graphics/SVG/1.1/DTD/svg11.dtd">
<svg version="1.1" id="Ebene_1" xmlns="http://www.w3.org/2000/svg" xmlns:xlink="http://www.w3.org/1999/xlink" x="0px" y="0px"
	 width="146.795px" height="127.564px" viewBox="0 0 146.795 127.564" enable-background="new 0 0 146.795 127.564"
	 xml:space="preserve">
<path fill="none" d="M136.552,122.808H11.718c-3.483,0-6.333-2.85-6.333-6.333V11.641c0-3.483,2.85-6.333,6.333-6.333h124.834
	c3.483,0,6.333,2.85,6.333,6.333v104.834C142.885,119.958,140.035,122.808,136.552,122.808"/>
<path fill="none" stroke="#84CE95" stroke-width="3" stroke-linecap="round" stroke-linejoin="round" d="M136.552,122.808H11.718
	c-3.483,0-6.333-2.85-6.333-6.333V11.641c0-3.483,2.85-6.333,6.333-6.333h124.834c3.483,0,6.333,2.85,6.333,6.333v104.834
	C142.885,119.958,140.035,122.808,136.552,122.808z"/>
<text transform="matrix(1 0 0 1 46.1025 114.4121)" fill="#84CE95" font-family="'SourceCodeVariable-Roman_400_'" font-size="20">pattern</text>
<rect x="38.885" y="18.808" fill="none" stroke="#84CE95" stroke-linecap="square" stroke-miterlimit="10" width="72" height="71"/>
<polygon fill="none" stroke="#84CE95" stroke-linecap="square" stroke-miterlimit="10" points="109.606,20.808 110.09,19.927 
	110.09,19.792 104.195,19.792 107.343,21.521 "/>
<polygon fill="none" stroke="#84CE95" stroke-linecap="square" stroke-miterlimit="10" points="60.367,36.331 61.516,35.969 
	69.852,20.799 84.354,28.769 87.652,27.729 92.014,19.792 39.557,19.792 39.557,36.605 44.5,27.611 "/>
<path fill="none" stroke="#84CE95" stroke-linecap="square" stroke-miterlimit="10" d="M107.391,74.962
	c-1.773-0.248-3.011-1.887-2.763-3.66c0.247-1.773,1.888-3.011,3.661-2.763c0.708,0.099,1.324,0.427,1.801,0.89V20.655l-0.483,0.152
	l-0.826,1.504l-1.438-0.79l-19.69,6.208l-1.204,2.189l-2.094-1.15l-22.839,7.2l-0.419,0.763l-0.729-0.4l-20.81,6.561v16.07
	c1.597,0.391,2.677,1.92,2.444,3.583c-0.189,1.354-1.191,2.39-2.444,2.695v15.519c0.556-0.267,1.192-0.38,1.848-0.288
	c1.773,0.248,3.011,1.887,2.763,3.66c-0.248,1.774-1.887,3.011-3.661,2.763c-0.341-0.048-0.654-0.16-0.949-0.302v2.921h22.519
	c-0.938-0.682-1.486-1.833-1.315-3.062c0.248-1.773,1.888-3.011,3.661-2.763s3.011,1.888,2.763,3.661
	c-0.127,0.903-0.616,1.664-1.298,2.163h6.522c-0.149-0.455-0.211-0.945-0.14-1.451c0.248-1.774,1.887-3.012,3.66-2.764
	c1.774,0.248,3.011,1.887,2.763,3.661c-0.026,0.192-0.077,0.375-0.135,0.554h5.259c0.321-1.687,1.902-2.846,3.622-2.605
	c1.411,0.197,2.469,1.279,2.723,2.605h5.976c0.695-0.74,1.727-1.147,2.81-0.996c0.76,0.106,1.411,0.478,1.899,0.996h9.244V74.067
	C109.396,74.739,108.421,75.106,107.391,74.962z M106.441,64.188c-0.248,1.774-1.887,3.011-3.66,2.763
	c-1.774-0.248-3.011-1.887-2.763-3.66c0.248-1.774,1.887-3.011,3.66-2.763C105.453,60.775,106.689,62.414,106.441,64.188z
	 M40.47,57.965l6.778-12.627l12.072,6.48l0.866-0.282l6.196-11.542l11.033,5.923l2.488-0.811l5.342-9.951l9.514,5.107l1.707-0.557
	l4.537-8.453l8.082,4.338l-12.619,4.115l-0.614,1.144l-1.093-0.587l-14.855,4.844l-0.895,1.666l-1.594-0.855l-17.229,5.619
	l-0.312,0.58l-0.555-0.298l-10.438,3.403c0.044,0.299,0.062,0.605,0.018,0.92c-0.248,1.773-1.887,3.011-3.661,2.763
	c-1.075-0.15-1.945-0.815-2.415-1.707L40.47,57.965z M93.12,69.692c0.248-1.773,1.887-3.011,3.66-2.763
	c1.774,0.248,3.011,1.887,2.763,3.661c-0.248,1.773-1.887,3.011-3.66,2.762C94.108,73.105,92.872,71.466,93.12,69.692z
	 M91.272,65.341c-1.774-0.248-3.011-1.887-2.763-3.66c0.248-1.774,1.887-3.011,3.661-2.763c1.773,0.248,3.011,1.887,2.763,3.66
	C94.686,64.353,93.046,65.589,91.272,65.341z M81.611,68.083c0.248-1.773,1.887-3.011,3.661-2.763
	c1.773,0.248,3.011,1.888,2.763,3.661s-1.888,3.011-3.662,2.763C82.601,71.496,81.363,69.856,81.611,68.083z M79.765,63.731
	c-1.774-0.248-3.011-1.887-2.763-3.66s1.887-3.01,3.66-2.763c1.774,0.248,3.011,1.887,2.763,3.661
	C83.177,62.743,81.538,63.979,79.765,63.731z M70.104,66.474c0.248-1.773,1.887-3.01,3.66-2.762c1.774,0.248,3.011,1.887,2.763,3.66
	s-1.887,3.011-3.66,2.763C71.092,69.887,69.855,68.248,70.104,66.474z M68.256,62.123c-1.773-0.248-3.011-1.888-2.763-3.661
	s1.888-3.011,3.661-2.763s3.01,1.888,2.762,3.661C71.669,61.134,70.029,62.371,68.256,62.123z M51.161,71.192
	c0.248-1.773,1.888-3.01,3.661-2.762s3.01,1.887,2.763,3.66c-0.248,1.773-1.888,3.011-3.661,2.762
	C52.15,74.605,50.913,72.967,51.161,71.192z M49.85,66.916c-1.774-0.248-3.011-1.887-2.763-3.66c0.248-1.774,1.887-3.011,3.66-2.763
	c1.774,0.248,3.011,1.887,2.763,3.66C53.262,65.928,51.623,67.164,49.85,66.916z M56.748,60.514
	c-1.774-0.248-3.011-1.888-2.763-3.661s1.887-3.011,3.66-2.763c1.774,0.248,3.011,1.888,2.763,3.661S58.521,60.762,56.748,60.514z
	 M58.595,64.865c0.248-1.774,1.888-3.011,3.661-2.763s3.011,1.887,2.763,3.66c-0.248,1.774-1.888,3.011-3.661,2.763
	S58.347,66.639,58.595,64.865z M42.416,73.244c-1.774-0.248-3.011-1.887-2.763-3.66c0.248-1.774,1.886-3.011,3.66-2.763
	s3.011,1.887,2.763,3.66C45.828,72.256,44.189,73.492,42.416,73.244z M47.025,81.256c-1.773-0.248-3.011-1.887-2.763-3.66
	s1.888-3.011,3.661-2.763s3.011,1.887,2.763,3.661C50.438,80.268,48.799,81.504,47.025,81.256z M55.676,85.74
	c-0.248,1.773-1.887,3.011-3.66,2.763c-1.774-0.248-3.011-1.887-2.763-3.661c0.247-1.773,1.887-3.011,3.66-2.763
	C54.688,82.327,55.924,83.967,55.676,85.74z M62.194,80.103c-0.248,1.774-1.887,3.011-3.66,2.763
	c-1.774-0.248-3.011-1.888-2.763-3.66c0.248-1.774,1.887-3.011,3.66-2.763C61.206,76.69,62.442,78.329,62.194,80.103z
	 M65.433,76.463c-1.774-0.248-3.011-1.888-2.763-3.661s1.887-3.011,3.66-2.763c1.774,0.248,3.011,1.888,2.763,3.661
	S67.206,76.711,65.433,76.463z M73.703,81.712c-0.248,1.773-1.888,3.011-3.662,2.763c-1.772-0.248-3.01-1.887-2.762-3.661
	c0.248-1.773,1.887-3.01,3.661-2.762C72.714,78.3,73.951,79.938,73.703,81.712z M76.94,78.072c-1.774-0.248-3.011-1.888-2.763-3.661
	s1.887-3.011,3.661-2.763c1.773,0.248,3.011,1.887,2.763,3.661C80.354,77.083,78.714,78.32,76.94,78.072z M85.211,83.321
	c-0.248,1.773-1.887,3.011-3.66,2.763c-1.774-0.248-3.01-1.887-2.763-3.661c0.248-1.773,1.887-3.01,3.66-2.762
	C84.223,79.909,85.459,81.548,85.211,83.321z M88.449,79.681c-1.774-0.248-3.011-1.887-2.763-3.66s1.887-3.011,3.66-2.763
	c1.774,0.248,3.011,1.886,2.763,3.661C91.861,78.692,90.223,79.929,88.449,79.681z M96.72,84.931
	c-0.248,1.773-1.889,3.011-3.661,2.763c-1.773-0.248-3.011-1.888-2.763-3.661s1.888-3.011,3.66-2.764
	C95.73,81.518,96.968,83.157,96.72,84.931z M99.956,81.29c-1.772-0.248-3.01-1.887-2.762-3.66c0.248-1.774,1.887-3.011,3.661-2.763
	c1.773,0.248,3.011,1.887,2.763,3.66C103.37,80.302,101.73,81.538,99.956,81.29z M108.228,86.54
	c-0.248,1.773-1.887,3.011-3.66,2.763c-1.774-0.248-3.011-1.888-2.763-3.661s1.887-3.011,3.66-2.763
	C107.239,83.127,108.476,84.766,108.228,86.54z"/>
<polygon fill="none" stroke="#84CE95" stroke-linecap="square" stroke-miterlimit="10" points="66.383,39.994 60.187,51.536 
	77.417,45.917 "/>
<polygon fill="none" stroke="#84CE95" stroke-linecap="square" stroke-miterlimit="10" points="85.246,35.155 79.904,45.106 
	94.76,40.263 "/>
<polygon fill="none" stroke="#84CE95" stroke-linecap="square" stroke-miterlimit="10" points="96.467,39.706 94.76,40.263 
	95.853,40.85 "/>
<polygon fill="none" stroke="#84CE95" stroke-linecap="square" stroke-miterlimit="10" points="79.904,45.106 77.417,45.917 
	79.009,46.772 "/>
<polygon fill="none" stroke="#84CE95" stroke-linecap="square" stroke-miterlimit="10" points="60.187,51.536 59.32,51.818 
	59.875,52.116 "/>
<polygon fill="none" stroke="#84CE95" stroke-linecap="square" stroke-miterlimit="10" points="101.004,31.253 96.467,39.706 
	109.086,35.591 "/>
<polygon fill="none" stroke="#84CE95" stroke-linecap="square" stroke-miterlimit="10" points="61.516,35.969 84.354,28.769 
	69.852,20.799 "/>
<polygon fill="none" stroke="#84CE95" stroke-linecap="square" stroke-miterlimit="10" points="86.448,29.919 87.652,27.729 
	84.354,28.769 "/>
<polygon fill="none" stroke="#84CE95" stroke-linecap="square" stroke-miterlimit="10" points="61.097,36.731 61.516,35.969 
	60.367,36.331 "/>
<polyline fill="none" stroke="#84CE95" stroke-linecap="square" stroke-miterlimit="10" points="39.558,42.892 60.367,36.331 
	44.5,27.611 39.558,36.605 "/>
<polyline fill="none" stroke="#84CE95" stroke-linecap="square" stroke-miterlimit="10" points="92.014,19.792 87.652,27.729 
	107.343,21.521 104.195,19.792 "/>
<polygon fill="none" stroke="#84CE95" stroke-linecap="square" stroke-miterlimit="10" points="108.78,22.311 109.606,20.808 
	107.344,21.521 "/>
<path fill="none" stroke="#84CE95" stroke-linecap="square" stroke-miterlimit="10" d="M45.239,58.904
	c1.774,0.248,3.413-0.989,3.661-2.763c0.044-0.314,0.027-0.621-0.018-0.92l10.438-3.403l-12.072-6.48l-6.779,12.627l2.355-0.768
	C43.294,58.089,44.165,58.754,45.239,58.904z"/>
<circle fill="none" stroke="#84CE95" stroke-linecap="square" stroke-miterlimit="10" cx="57.197" cy="57.302" r="3.243"/>
<circle fill="none" stroke="#84CE95" stroke-linecap="square" stroke-miterlimit="10" cx="68.705" cy="58.911" r="3.243"/>
<circle fill="none" stroke="#84CE95" stroke-linecap="square" stroke-miterlimit="10" cx="80.213" cy="60.521" r="3.243"/>
<circle fill="none" stroke="#84CE95" stroke-linecap="square" stroke-miterlimit="10" cx="91.722" cy="62.129" r="3.243"/>
<circle fill="none" stroke="#84CE95" stroke-linecap="square" stroke-miterlimit="10" cx="103.23" cy="63.739" r="3.243"/>
<circle fill="none" stroke="#84CE95" stroke-linecap="square" stroke-miterlimit="10" cx="50.298" cy="63.705" r="3.243"/>
<circle fill="none" stroke="#84CE95" stroke-linecap="square" stroke-miterlimit="10" cx="61.807" cy="65.314" r="3.243"/>
<circle fill="none" stroke="#84CE95" stroke-linecap="square" stroke-miterlimit="10" cx="73.314" cy="66.923" r="3.243"/>
<circle fill="none" stroke="#84CE95" stroke-linecap="square" stroke-miterlimit="10" cx="84.823" cy="68.532" r="3.243"/>
<circle fill="none" stroke="#84CE95" stroke-linecap="square" stroke-miterlimit="10" cx="96.331" cy="70.142" r="3.243"/>
<path fill="none" stroke="#84CE95" stroke-linecap="square" stroke-miterlimit="10" d="M110.09,69.429
	c-0.477-0.463-1.093-0.791-1.801-0.89c-1.773-0.248-3.413,0.989-3.661,2.763s0.989,3.412,2.763,3.66
	c1.03,0.145,2.006-0.223,2.699-0.895"/>
<path fill="none" stroke="#84CE95" stroke-linecap="square" stroke-miterlimit="10" d="M39.558,65.24
	c1.253-0.306,2.255-1.341,2.444-2.695c0.232-1.663-0.848-3.192-2.444-3.583c-0.106-0.026-0.208-0.063-0.318-0.078"/>
<circle fill="none" stroke="#84CE95" stroke-linecap="square" stroke-miterlimit="10" cx="42.865" cy="70.033" r="3.243"/>
<circle fill="none" stroke="#84CE95" stroke-linecap="square" stroke-miterlimit="10" cx="54.373" cy="71.642" r="3.243"/>
<circle fill="none" stroke="#84CE95" stroke-linecap="square" stroke-miterlimit="10" cx="65.881" cy="73.251" r="3.243"/>
<circle fill="none" stroke="#84CE95" stroke-linecap="square" stroke-miterlimit="10" cx="77.39" cy="74.86" r="3.243"/>
<circle fill="none" stroke="#84CE95" stroke-linecap="square" stroke-miterlimit="10" cx="88.898" cy="76.47" r="3.243"/>
<circle fill="none" stroke="#84CE95" stroke-linecap="square" stroke-miterlimit="10" cx="100.406" cy="78.079" r="3.243"/>
<circle fill="none" stroke="#84CE95" stroke-linecap="square" stroke-miterlimit="10" cx="47.475" cy="78.045" r="3.243"/>
<circle fill="none" stroke="#84CE95" stroke-linecap="square" stroke-miterlimit="10" cx="58.983" cy="79.654" r="3.243"/>
<circle fill="none" stroke="#84CE95" stroke-linecap="square" stroke-miterlimit="10" cx="70.492" cy="81.263" r="3.243"/>
<circle fill="none" stroke="#84CE95" stroke-linecap="square" stroke-miterlimit="10" cx="82" cy="82.873" r="3.243"/>
<circle fill="none" stroke="#84CE95" stroke-linecap="square" stroke-miterlimit="10" cx="93.508" cy="84.481" r="3.243"/>
<circle fill="none" stroke="#84CE95" stroke-linecap="square" stroke-miterlimit="10" cx="105.016" cy="86.091" r="3.243"/>
<path fill="none" stroke="#84CE95" stroke-linecap="square" stroke-miterlimit="10" d="M39.558,86.592
	c0.295,0.142,0.608,0.254,0.949,0.302c1.774,0.248,3.413-0.988,3.661-2.763c0.248-1.773-0.989-3.412-2.763-3.66
	c-0.655-0.092-1.292,0.021-1.848,0.288"/>
<circle fill="none" stroke="#84CE95" stroke-linecap="square" stroke-miterlimit="10" cx="52.464" cy="85.291" r="3.243"/>
<path fill="none" stroke="#84CE95" stroke-linecap="square" stroke-miterlimit="10" d="M65.887,89.513
	c0.682-0.499,1.171-1.26,1.298-2.163c0.248-1.773-0.989-3.413-2.763-3.661s-3.413,0.989-3.661,2.763
	c-0.171,1.229,0.378,2.38,1.315,3.062"/>
<path fill="none" stroke="#84CE95" stroke-linecap="square" stroke-miterlimit="10" d="M78.558,89.513
	c0.058-0.179,0.108-0.361,0.135-0.554c0.248-1.774-0.988-3.413-2.763-3.661c-1.773-0.248-3.412,0.989-3.66,2.763
	c-0.071,0.507-0.01,0.997,0.141,1.452"/>
<path fill="none" stroke="#84CE95" stroke-linecap="square" stroke-miterlimit="10" d="M90.161,89.513
	c-0.254-1.326-1.312-2.408-2.723-2.604c-1.72-0.241-3.3,0.918-3.622,2.604c-0.01,0.054-0.031,0.104-0.039,0.157"/>
<path fill="none" stroke="#84CE95" stroke-linecap="square" stroke-miterlimit="10" d="M100.846,89.513
	c-0.488-0.519-1.139-0.89-1.899-0.996c-1.083-0.15-2.113,0.256-2.81,0.996"/>
</svg>
