<?xml version="1.0" encoding="utf-8"?>
<!-- Generator: Adobe Illustrator 16.0.0, SVG Export Plug-In . SVG Version: 6.00 Build 0)  -->
<!DOCTYPE svg PUBLIC "-//W3C//DTD SVG 1.1//EN" "http://www.w3.org/Graphics/SVG/1.1/DTD/svg11.dtd">
<svg version="1.1" id="Ebene_1" xmlns="http://www.w3.org/2000/svg" xmlns:xlink="http://www.w3.org/1999/xlink" x="0px" y="0px"
	 width="146.154px" height="125.642px" viewBox="0 0 146.154 125.642" enable-background="new 0 0 146.154 125.642"
	 xml:space="preserve">
<path fill="none" d="M136.552,120.885H11.718c-3.483,0-6.333-2.85-6.333-6.333V9.718c0-3.483,2.85-6.333,6.333-6.333h124.834
	c3.483,0,6.333,2.85,6.333,6.333v104.834C142.885,118.035,140.035,120.885,136.552,120.885"/>
<path fill="none" stroke="#F0C0F0" stroke-width="3" stroke-linecap="round" stroke-linejoin="round" d="M136.552,120.885H11.718
	c-3.483,0-6.333-2.85-6.333-6.333V9.718c0-3.483,2.85-6.333,6.333-6.333h124.834c3.483,0,6.333,2.85,6.333,6.333v104.834
	C142.885,118.035,140.035,120.885,136.552,120.885z"/>
<circle fill="none" stroke="#F0C0F0" stroke-linecap="round" stroke-linejoin="round" cx="72.802" cy="57.113" r="15.684"/>
<path fill="none" stroke="#F0C0F0" stroke-linecap="round" stroke-linejoin="round" d="M96.385,81.061H49.218c-6.6,0-12-5.4-12-12
	V45.166c0-6.601,5.4-12,12-12h47.167c6.6,0,12,5.399,12,12v23.895C108.385,75.66,102.984,81.061,96.385,81.061z"/>
<polyline fill="none" stroke="#F0C0F0" stroke-linecap="round" stroke-linejoin="round" points="56.612,32.828 62.008,23.385 
	72.801,23.385 "/>
<polyline fill="none" stroke="#F0C0F0" stroke-linecap="round" stroke-linejoin="round" points="88.991,32.828 83.595,23.385 
	72.802,23.385 "/>
<text transform="matrix(1 0 0 1 43.1025 110.4893)" fill="#F0C0F0" font-family="'SourceCodeVariable-Roman_400_'" font-size="20">photos</text>
</svg>
