<?xml version="1.0" encoding="utf-8"?>
<!-- Generator: Adobe Illustrator 16.0.0, SVG Export Plug-In . SVG Version: 6.00 Build 0)  -->
<!DOCTYPE svg PUBLIC "-//W3C//DTD SVG 1.1//EN" "http://www.w3.org/Graphics/SVG/1.1/DTD/svg11.dtd">
<svg version="1.1" id="Ebene_1" xmlns="http://www.w3.org/2000/svg" xmlns:xlink="http://www.w3.org/1999/xlink" x="0px" y="0px"
	 width="146.154px" height="123.718px" viewBox="0 0 146.154 123.718" enable-background="new 0 0 146.154 123.718"
	 xml:space="preserve">
<path fill="none" d="M136.552,120.885H11.719c-3.484,0-6.334-2.85-6.334-6.333V9.718c0-3.483,2.85-6.333,6.334-6.333h124.833
	c3.483,0,6.333,2.85,6.333,6.333v104.834C142.885,118.035,140.035,120.885,136.552,120.885"/>
<path fill="none" stroke="#6AC8D9" stroke-width="3" stroke-linecap="round" stroke-linejoin="round" d="M136.552,120.885H11.719
	c-3.484,0-6.334-2.85-6.334-6.333V9.718c0-3.483,2.85-6.333,6.334-6.333h124.833c3.483,0,6.333,2.85,6.333,6.333v104.834
	C142.885,118.035,140.035,120.885,136.552,120.885z"/>
<polygon fill="none" stroke="#6AC8D9" stroke-linecap="round" stroke-linejoin="round" points="74.668,28.555 57.309,57.272 
	81.418,73.612 87.687,47.369 "/>
<polyline fill="none" stroke="#6AC8D9" stroke-linecap="round" stroke-linejoin="round" points="99.674,25.448 109.385,25.089 
	87.687,47.369 103.599,18.157 74.668,28.555 "/>
<polyline fill="none" stroke="#6AC8D9" stroke-linecap="round" stroke-linejoin="round" points="81.418,73.612 79.972,78.563 
	97.33,89.951 87.687,47.37 57.309,57.272 50.076,34.991 "/>
<polyline fill="none" stroke="#6AC8D9" stroke-linecap="round" stroke-linejoin="round" points="53.033,44.552 40.191,44.646 
	49.835,34.744 68.641,38.21 "/>
<text transform="matrix(1 0 0 1 42.1025 113.4893)" fill="#6AC8D9" font-family="'SourceCodeVariable-Roman_400_'" font-size="20">symbols</text>
</svg>
